<svg width="402" height="77" viewBox="0 0 402 77" fill="none" xmlns="http://www.w3.org/2000/svg">
<g clip-path="url(#clip0_521_2240)">
<path d="M393.159 28.0788L392.777 32.1175C392.743 32.508 392.777 32.8986 392.876 33.2725L397.82 31.943C397.696 31.4942 397.654 31.0205 397.704 30.5469L398.161 25.6523C398.236 24.813 398.045 23.9903 397.646 23.3006L392.727 26.1426C393.059 26.716 393.217 27.3891 393.151 28.0871L393.159 28.0788ZM389.444 17.6831L387.392 13.2123C387.043 12.4478 386.47 11.8329 385.772 11.434L382.93 16.3535C383.503 16.6859 383.977 17.1928 384.268 17.8243L385.963 21.514C386.129 21.8713 386.353 22.1871 386.628 22.4613L390.25 18.8382C389.918 18.5058 389.644 18.1152 389.453 17.6831H389.444ZM377.13 11.2595C376.681 11.1348 376.249 10.9354 375.858 10.6612L371.845 7.81917C371.155 7.32888 370.349 7.08789 369.551 7.08789V12.7636C370.216 12.7636 370.881 12.963 371.446 13.3702L374.753 15.7136C375.069 15.938 375.426 16.1042 375.8 16.2039L377.13 11.2595ZM396.325 39.5382C396.325 40.203 396.125 40.8678 395.718 41.4329L393.375 44.7403C393.151 45.0561 392.984 45.4134 392.885 45.7873L397.829 47.1169C397.953 46.6682 398.153 46.2361 398.427 45.8455L401.269 41.8318C401.759 41.1421 402 40.336 402 39.5382H396.325ZM345.944 50.9811L346.326 46.9424C346.359 46.5518 346.326 46.1613 346.226 45.7873L341.282 47.1169C341.407 47.5657 341.448 48.0393 341.399 48.513L340.942 53.4076C340.867 54.2469 341.058 55.0695 341.457 55.7593L346.376 52.9173C346.044 52.3439 345.886 51.6708 345.952 50.9727L345.944 50.9811ZM343.393 37.6353L345.736 34.3279C345.961 34.0121 346.127 33.6548 346.226 33.2809L341.282 31.9513C341.158 32.4 340.958 32.8321 340.684 33.2227L337.842 37.2364C337.352 37.9261 337.111 38.7322 337.111 39.5299H342.786C342.786 38.8651 342.986 38.2003 343.393 37.6353ZM363.311 16.2039L361.981 11.2595C361.533 11.3841 361.059 11.4174 360.585 11.3758L355.691 10.9188C354.852 10.844 354.029 11.0351 353.339 11.434L356.181 16.3535C356.755 16.0211 357.428 15.8632 358.126 15.9297L362.164 16.3036C362.555 16.3369 362.945 16.3036 363.319 16.2039H363.311ZM391.281 54.2552L387.591 55.9504C387.234 56.1166 386.918 56.341 386.644 56.6152L390.267 60.2383C390.599 59.9059 390.99 59.6317 391.414 59.4406L395.884 57.388C396.649 57.039 397.264 56.4656 397.663 55.7676L392.743 52.9256C392.411 53.499 391.904 53.9726 391.273 54.2635L391.281 54.2552ZM352.484 22.4613L348.861 18.8382C348.528 19.1706 348.138 19.4365 347.706 19.6359L343.235 21.6885C342.471 22.0375 341.856 22.6109 341.457 23.3089L346.376 26.1509C346.708 25.5775 347.215 25.1039 347.847 24.813L351.536 23.1178C351.894 22.9516 352.209 22.7272 352.484 22.453V22.4613ZM381.002 63.1385L376.963 62.7562C376.573 62.723 376.182 62.7563 375.808 62.856L377.138 67.8004C377.587 67.6757 378.06 67.6342 378.534 67.6841L383.428 68.1411C384.268 68.2159 385.09 68.0248 385.78 67.6259L382.938 62.7064C382.365 63.0388 381.692 63.1967 380.994 63.1302L381.002 63.1385ZM354.827 61.2355L353.132 57.5459C352.965 57.1886 352.741 56.8728 352.475 56.5986L348.852 60.2217C349.185 60.5541 349.459 60.9447 349.65 61.3768L351.702 65.8476C352.051 66.6121 352.625 67.227 353.323 67.6259L356.165 62.7064C355.591 62.374 355.118 61.8671 354.827 61.2355ZM364.35 63.338C364.034 63.1136 363.677 62.9474 363.303 62.8477L361.973 67.7921C362.422 67.9167 362.854 68.1162 363.244 68.3904L367.258 71.2324C367.948 71.7227 368.754 71.9637 369.551 71.9637V66.288C368.887 66.288 368.222 66.0885 367.657 65.6814L364.35 63.338Z" fill="#00B0EA"/>
<path d="M346.368 26.1343L341.448 23.2923C341.05 23.9903 340.858 24.8047 340.933 25.644L341.39 30.5386C341.432 31.0123 341.39 31.4859 341.274 31.9347L346.218 33.2643C346.318 32.8903 346.351 32.4997 346.318 32.1092L345.936 28.0705C345.869 27.3808 346.027 26.6994 346.359 26.126L346.368 26.1343ZM348.844 18.8132L352.467 22.4364C352.741 22.1622 352.966 21.8464 353.132 21.4891L354.827 17.7994C355.118 17.1679 355.591 16.661 356.165 16.3286L353.323 11.4091C352.625 11.808 352.051 12.4229 351.702 13.1874L349.65 17.6582C349.451 18.0903 349.176 18.4809 348.852 18.8132H348.844ZM363.303 16.1873C363.677 16.0876 364.026 15.9214 364.35 15.697L367.657 13.3536C368.222 12.9547 368.887 12.747 369.551 12.747V7.07129C368.745 7.07129 367.939 7.31228 367.258 7.80256L363.244 10.6446C362.854 10.9188 362.43 11.1182 361.973 11.2429L363.303 16.1873ZM337.103 39.5133C337.103 40.3194 337.344 41.1255 337.834 41.8069L340.676 45.8206C340.95 46.2112 341.149 46.635 341.274 47.092L346.218 45.7624C346.118 45.3885 345.952 45.0311 345.728 44.7154L343.385 41.408C342.986 40.8429 342.778 40.1781 342.778 39.5133H337.103ZM392.735 52.9007L397.654 55.7427C398.053 55.0446 398.244 54.2303 398.17 53.3909L397.712 48.4964C397.671 48.0227 397.713 47.5491 397.829 47.1003L392.885 45.7707C392.785 46.1447 392.752 46.5352 392.785 46.9258L393.159 50.9644C393.225 51.6542 393.067 52.3356 392.735 52.909V52.9007ZM396.325 39.5216H402C402 38.7156 401.759 37.9095 401.269 37.2281L398.427 33.2144C398.153 32.8238 397.953 32.4 397.829 31.943L392.885 33.2726C392.984 33.6465 393.151 33.9955 393.375 34.3196L395.718 37.627C396.117 38.192 396.325 38.8569 396.325 39.5216ZM376.955 16.287L380.994 15.9131C381.683 15.8466 382.365 16.0045 382.938 16.3369L385.78 11.4174C385.082 11.0185 384.268 10.8274 383.428 10.9022L378.534 11.3592C378.06 11.4008 377.587 11.3592 377.138 11.2429L375.808 16.1873C376.182 16.287 376.573 16.3203 376.964 16.287H376.955ZM346.376 52.9007L341.457 55.7427C341.856 56.4407 342.471 57.0141 343.235 57.3631L347.706 59.4157C348.138 59.6151 348.528 59.8893 348.861 60.2134L352.484 56.5903C352.209 56.3161 351.894 56.0917 351.536 55.9255L347.847 54.2303C347.215 53.9394 346.708 53.4657 346.376 52.8924V52.9007ZM387.583 23.0929L391.273 24.7881C391.904 25.079 392.411 25.5526 392.743 26.126L397.663 23.284C397.264 22.586 396.649 22.0126 395.884 21.6636L391.414 19.611C390.982 19.4116 390.591 19.1373 390.267 18.8132L386.644 22.4364C386.918 22.7106 387.234 22.935 387.591 23.1012L387.583 23.0929ZM356.181 62.7064L353.339 67.6259C354.037 68.0248 354.852 68.2159 355.691 68.1411L360.585 67.6841C361.059 67.6425 361.533 67.6841 361.981 67.8004L363.311 62.856C362.937 62.7563 362.546 62.723 362.156 62.7563L358.117 63.1385C357.428 63.205 356.746 63.0471 356.173 62.7147L356.181 62.7064ZM382.946 62.7147L385.788 67.6342C386.486 67.2353 387.06 66.6204 387.409 65.8559L389.461 61.3851C389.661 60.953 389.935 60.5624 390.259 60.23L386.636 56.6069C386.362 56.8811 386.137 57.1969 385.971 57.5542L384.276 61.2439C383.985 61.8754 383.511 62.3823 382.938 62.7147H382.946ZM371.446 65.698C370.881 66.0969 370.216 66.3046 369.551 66.3046V71.9803C370.357 71.9803 371.163 71.7393 371.845 71.249L375.858 68.407C376.249 68.1328 376.673 67.9334 377.13 67.8087L375.8 62.8643C375.426 62.964 375.069 63.1302 374.753 63.3546L371.446 65.698Z" fill="#0080C8"/>
<path d="M390.168 38.0343L388.315 35.425C387.957 34.9181 387.791 34.3032 387.849 33.6882L388.148 30.5055C388.248 29.4169 387.65 28.3782 386.653 27.9211L383.744 26.5915C383.179 26.3339 382.731 25.8852 382.473 25.3201L381.143 22.4116C380.686 21.4144 379.648 20.8161 378.559 20.9158L375.377 21.215C374.762 21.2732 374.147 21.107 373.648 20.7496L371.039 18.8965C370.142 18.265 368.945 18.265 368.056 18.8965L365.447 20.7496C364.94 21.107 364.325 21.2732 363.71 21.215L360.527 20.9158C359.439 20.8161 358.4 21.4144 357.943 22.4116L356.614 25.3201C356.356 25.8852 355.907 26.3339 355.342 26.5915L352.434 27.9211C351.437 28.3782 350.838 29.4169 350.938 30.5055L351.237 33.6882C351.295 34.3032 351.129 34.9181 350.772 35.425L348.919 38.0343C348.287 38.9318 348.287 40.1284 348.919 41.0176L350.772 43.6269C351.129 44.1338 351.295 44.7488 351.237 45.3637L350.938 48.5464C350.838 49.635 351.437 50.6738 352.434 51.1308L355.342 52.4604C355.907 52.718 356.356 53.1668 356.614 53.7318L357.943 56.6403C358.4 57.6375 359.439 58.2358 360.527 58.1361L363.71 57.8369C364.325 57.7788 364.94 57.945 365.447 58.3023L368.056 60.1554C368.953 60.787 370.15 60.787 371.039 60.1554L373.648 58.3023C374.155 57.945 374.77 57.7788 375.385 57.8369L378.567 58.1361C379.656 58.2358 380.695 57.6375 381.152 56.6403L382.481 53.7318C382.739 53.1668 383.188 52.718 383.753 52.4604L386.661 51.1308C387.658 50.6738 388.256 49.635 388.157 48.5464L387.858 45.3637C387.799 44.7488 387.966 44.1338 388.323 43.6269L390.176 41.0176C390.807 40.1201 390.807 38.9235 390.176 38.0343H390.168ZM385.024 40.6437L383.636 42.5965C383.37 42.9704 383.246 43.4358 383.287 43.8928L383.512 46.2778C383.586 47.1005 383.138 47.8733 382.39 48.214L380.213 49.2112C379.789 49.4023 379.457 49.7431 379.257 50.1669L378.26 52.3441C377.919 53.092 377.138 53.5407 376.324 53.4659L373.939 53.2415C373.482 53.2 373.017 53.3246 372.643 53.5906L370.69 54.9783C370.017 55.452 369.12 55.452 368.455 54.9783L366.502 53.5906C366.128 53.3246 365.663 53.2 365.206 53.2415L362.821 53.4659C361.998 53.5407 361.225 53.092 360.885 52.3441L359.888 50.1669C359.696 49.7431 359.356 49.4107 358.932 49.2112L356.755 48.214C356.007 47.8733 355.558 47.0922 355.633 46.2778L355.857 43.8928C355.899 43.4358 355.774 42.9704 355.508 42.5965L354.121 40.6437C353.647 39.9706 353.647 39.0731 354.121 38.4083L355.508 36.4554C355.774 36.0815 355.899 35.6161 355.857 35.1591L355.633 32.7741C355.558 31.9514 356.007 31.1786 356.755 30.8379L358.932 29.8407C359.356 29.6496 359.688 29.3089 359.879 28.8851L360.876 26.7079C361.217 25.96 361.998 25.5112 362.813 25.586L365.197 25.8104C365.654 25.8519 366.12 25.7273 366.494 25.4614L368.446 24.0736C369.12 23.5999 370.017 23.5999 370.682 24.0736L372.634 25.4614C373.008 25.7273 373.474 25.8519 373.931 25.8104L376.316 25.586C377.138 25.5112 377.911 25.96 378.252 26.7079L379.249 28.8851C379.44 29.3089 379.781 29.6413 380.204 29.8407L382.382 30.8379C383.129 31.1786 383.578 31.9598 383.503 32.7741L383.279 35.1591C383.237 35.6161 383.362 36.0815 383.628 36.4554L385.016 38.4083C385.489 39.0814 385.489 39.9789 385.016 40.6437" fill="#FCC200"/>
<path d="M305.21 0V77" stroke="#0080C8" stroke-width="0.75" stroke-miterlimit="10"/>
<path d="M228.172 21.8639L238.036 12H273.185V46.7938L263.139 56.8405V21.8639H228.172Z" fill="#6AAADD"/>
<path d="M263.139 56.8408L253.275 66.7047H218.126V31.911L228.172 21.8643V56.8408H263.139Z" fill="#6AAADD"/>
<path d="M247.359 38.517V45.1982H244.185V43.7356C243.553 44.7993 242.332 45.3644 240.62 45.3644C237.878 45.3644 236.249 43.8437 236.249 41.816C236.249 39.7884 237.703 38.3092 241.276 38.3092H243.977C243.977 36.8467 243.104 35.9991 241.276 35.9991C240.038 35.9991 238.75 36.4146 237.903 37.0877L236.681 34.7193C237.961 33.8052 239.855 33.3066 241.733 33.3066C245.298 33.3066 247.367 34.9603 247.367 38.5087L247.359 38.517ZM243.969 41.4919V40.2953H241.642C240.055 40.2953 239.556 40.8853 239.556 41.6664C239.556 42.5141 240.271 43.0791 241.467 43.0791C242.598 43.0791 243.578 42.5556 243.969 41.4919Z" fill="#CDAB02"/>
<path d="M256.691 33.3154V36.4483C256.408 36.4234 256.192 36.4067 255.926 36.4067C254.057 36.4067 252.81 37.4289 252.81 39.6725V45.1987H249.42V33.4899H252.661V35.0356C253.483 33.9054 254.879 33.3154 256.682 33.3154" fill="#CDAB02"/>
<path d="M56.6129 29.5181L55.5742 27.0002H50.0234L48.9847 29.5181H46.3755L51.5357 17.9424H54.1117L59.2885 29.5181H56.6129ZM50.8294 25.0973H54.7848L52.8071 20.319L50.8294 25.0973Z" fill="#8B9BA5"/>
<path d="M64.4572 32.9004C63.593 32.9004 62.7704 32.7923 61.9976 32.5846C61.2581 32.3851 60.6265 32.0943 60.1363 31.7203L61.1002 29.9836C61.4741 30.2744 61.9394 30.5071 62.4962 30.6816C63.0862 30.8644 63.6761 30.9641 64.2661 30.9641C65.1885 30.9641 65.8782 30.7481 66.3269 30.3326C66.7673 29.9088 67 29.2689 67 28.4213V27.8313L66.8587 27.9809C66.1939 28.7121 65.255 29.0778 64.0667 29.0778C63.2607 29.0778 62.5045 28.895 61.8314 28.5459C61.1584 28.1886 60.6182 27.6817 60.2277 27.0418C59.8371 26.402 59.6377 25.6458 59.6377 24.8065C59.6377 23.9672 59.8371 23.211 60.2277 22.5711C60.6182 21.9312 61.1584 21.4243 61.8314 21.067C62.5045 20.7097 63.2524 20.5352 64.0667 20.5352C65.3464 20.5352 66.3269 20.959 66.9917 21.7983L67.1329 21.9728V20.6681H69.4596V28.0972C69.4596 29.7177 69.0358 30.9392 68.1965 31.7287C67.3573 32.5181 66.1025 32.917 64.4822 32.917L64.4572 32.9004ZM64.5736 22.5046C63.8673 22.5046 63.269 22.7207 62.8119 23.1362C62.3466 23.56 62.1139 24.1167 62.1139 24.7982C62.1139 25.4796 62.3466 26.0363 62.8119 26.4602C63.269 26.884 63.8673 27.0917 64.5736 27.0917C65.2799 27.0917 65.8782 26.8756 66.3269 26.4602C66.7839 26.0363 67.0166 25.4796 67.0166 24.7982C67.0166 24.1167 66.7839 23.56 66.3269 23.1362C65.8699 22.7124 65.2799 22.5046 64.5736 22.5046Z" fill="#8B9BA5"/>
<path d="M76.2734 29.6512C75.2763 29.6512 74.3788 29.4518 73.6144 29.0612C72.8499 28.6706 72.2516 28.1305 71.8361 27.4407C71.4206 26.751 71.2129 25.9616 71.2129 25.0807C71.2129 24.1999 71.4206 23.427 71.8278 22.729C72.235 22.031 72.8083 21.4825 73.523 21.1003C74.2376 20.7097 75.0519 20.5186 75.941 20.5186C76.8302 20.5186 77.6029 20.7097 78.301 21.0753C78.999 21.4493 79.5557 21.9894 79.9546 22.6791C80.3534 23.3772 80.5528 24.1916 80.5528 25.114C80.5528 25.1472 80.5362 25.3549 80.5113 25.7372H73.6642L73.6891 25.8369C73.8138 26.4103 74.1212 26.8757 74.5949 27.2081C75.0602 27.5405 75.6502 27.7067 76.3482 27.7067C76.8218 27.7067 77.2539 27.6319 77.6279 27.4906C77.9769 27.3576 78.3093 27.1499 78.6084 26.8674L79.8964 28.2634C79.0654 29.1775 77.8522 29.6429 76.2817 29.6429L76.2734 29.6512ZM75.9577 22.3384C75.3511 22.3384 74.8276 22.5129 74.4121 22.862C73.9966 23.211 73.739 23.6846 73.6476 24.283L73.631 24.3744H78.2594L78.2428 24.283C78.1514 23.693 77.8938 23.2193 77.4783 22.8703C77.0628 22.5213 76.5476 22.3384 75.9493 22.3384H75.9577Z" fill="#8B9BA5"/>
<path d="M88.9123 29.5182V24.8397C88.9123 24.1085 88.7461 23.5517 88.422 23.186C88.0979 22.8204 87.616 22.6293 87.001 22.6293C86.3197 22.6293 85.7712 22.8453 85.3724 23.2691C84.9652 23.693 84.7658 24.3245 84.7658 25.1389V29.5182H82.3062V20.6598H84.6494V21.8398L84.7907 21.6903C85.1314 21.3246 85.5552 21.0338 86.0538 20.826C86.5523 20.6266 87.1174 20.5186 87.7157 20.5186C88.8042 20.5186 89.7017 20.851 90.3664 21.4991C91.0312 22.1473 91.3719 23.1362 91.3719 24.4242V29.5099H88.9123V29.5182Z" fill="#8B9BA5"/>
<path d="M98.119 29.6507C97.1717 29.6507 96.3158 29.4513 95.568 29.0607C94.8201 28.6701 94.2301 28.13 93.8063 27.4403C93.3825 26.7505 93.1748 25.9611 93.1748 25.0802C93.1748 24.1994 93.3909 23.4099 93.8063 22.7202C94.2301 22.0305 94.8201 21.482 95.568 21.0998C96.3158 20.7092 97.18 20.5098 98.119 20.5098C99.058 20.5098 99.8723 20.7092 100.57 21.0915C101.235 21.4654 101.742 22.0056 102.058 22.687L100.163 23.7091C99.6812 22.903 98.9915 22.4958 98.1024 22.4958C97.4044 22.4958 96.8144 22.7285 96.3574 23.1856C95.9003 23.6426 95.6594 24.2825 95.6594 25.0719C95.6594 25.8614 95.892 26.4929 96.3574 26.9583C96.8144 27.4153 97.4044 27.648 98.1024 27.648C98.9998 27.648 99.6895 27.2408 100.163 26.4348L102.058 27.4652C101.742 28.13 101.243 28.6618 100.57 29.0358C99.8723 29.4263 99.0497 29.6258 98.119 29.6258V29.6507Z" fill="#8B9BA5"/>
<path d="M103.595 29.5178V20.6594H106.055V29.5178H103.595ZM104.825 19.2384C104.368 19.2384 103.994 19.1054 103.703 18.8395C103.412 18.5736 103.279 18.2495 103.279 17.8589C103.279 17.4684 103.421 17.1443 103.703 16.8784C103.986 16.6125 104.368 16.4795 104.825 16.4795C105.282 16.4795 105.664 16.6041 105.947 16.8618C106.238 17.1194 106.37 17.4268 106.37 17.8091C106.37 18.2246 106.229 18.557 105.947 18.8312C105.664 19.0971 105.282 19.2384 104.825 19.2384Z" fill="#8B9BA5"/>
<path d="M111.198 29.6507C110.517 29.6507 109.927 29.5344 109.428 29.3017C108.938 29.0773 108.556 28.7615 108.298 28.3544C108.041 27.9555 107.908 27.4984 107.908 26.9915C107.908 26.1855 108.215 25.5373 108.822 25.0719C109.437 24.6066 110.401 24.3656 111.697 24.3656H113.857V24.2825C113.857 23.6925 113.675 23.2271 113.309 22.9113C112.952 22.5956 112.403 22.4294 111.697 22.4294C111.207 22.4294 110.725 22.5042 110.259 22.662C109.827 22.8033 109.445 22.9944 109.129 23.2271L108.265 21.5485C108.739 21.2244 109.304 20.9751 109.952 20.7923C110.633 20.6012 111.34 20.5098 112.054 20.5098C113.425 20.5098 114.489 20.8422 115.22 21.4903C115.951 22.1385 116.317 23.1274 116.317 24.4404V29.5094H114.032V28.1715L113.882 28.4208C113.409 29.2269 112.503 29.6424 111.198 29.6424V29.6507ZM111.988 25.745C110.866 25.745 110.301 26.1273 110.301 26.8835C110.301 27.2408 110.442 27.5317 110.725 27.7394C110.999 27.9472 111.381 28.0469 111.855 28.0469C112.328 28.0469 112.727 27.9389 113.085 27.7228C113.442 27.5067 113.708 27.1827 113.857 26.7672V25.7367H111.988V25.745Z" fill="#8B9BA5"/>
<path d="M132.205 29.5181L131.166 27.0002H125.616L124.577 29.5181H121.968L127.128 17.9424H129.704L134.881 29.5181H132.205ZM126.422 25.0973H130.377L128.399 20.319L126.422 25.0973Z" fill="#8B9BA5"/>
<path d="M135.969 29.5182V20.6598H138.313V22.0143L138.454 21.8149C138.753 21.3911 139.168 21.067 139.684 20.851C140.182 20.6432 140.764 20.5269 141.412 20.5186V22.7706C141.163 22.7539 140.997 22.7456 140.905 22.7456C140.141 22.7456 139.526 22.9617 139.085 23.3938C138.645 23.8259 138.429 24.4824 138.429 25.3383V29.5182H135.969Z" fill="#8B9BA5"/>
<path d="M147.054 32.9004C146.19 32.9004 145.367 32.7923 144.594 32.5846C143.855 32.3851 143.223 32.0943 142.733 31.7203L143.697 29.9836C144.071 30.2744 144.536 30.5071 145.093 30.6816C145.683 30.8644 146.273 30.9641 146.863 30.9641C147.785 30.9641 148.475 30.7481 148.924 30.3326C149.372 29.9088 149.597 29.2689 149.597 28.4213V27.8313L149.455 27.9809C148.791 28.7121 147.852 29.0778 146.663 29.0778C145.849 29.0778 145.101 28.895 144.428 28.5459C143.755 28.1886 143.215 27.6817 142.824 27.0418C142.434 26.402 142.234 25.6458 142.234 24.8065C142.234 23.9672 142.434 23.211 142.824 22.5711C143.215 21.9312 143.755 21.4243 144.428 21.067C145.101 20.7097 145.849 20.5352 146.663 20.5352C147.943 20.5352 148.924 20.959 149.588 21.7983L149.73 21.9728V20.6681H152.056V28.0972C152.056 29.7177 151.632 30.9392 150.793 31.7287C149.954 32.5181 148.699 32.917 147.079 32.917L147.054 32.9004ZM147.17 22.5046C146.464 22.5046 145.866 22.7207 145.409 23.1362C144.943 23.56 144.711 24.1167 144.711 24.7982C144.711 25.4796 144.943 26.0363 145.409 26.4602C145.866 26.884 146.464 27.0917 147.17 27.0917C147.877 27.0917 148.467 26.8756 148.924 26.4602C149.381 26.0363 149.613 25.4796 149.613 24.7982C149.613 24.1167 149.381 23.56 148.924 23.1362C148.467 22.7124 147.877 22.5046 147.17 22.5046Z" fill="#8B9BA5"/>
<path d="M158.871 29.6512C157.873 29.6512 156.976 29.4518 156.212 29.0612C155.447 28.6706 154.849 28.1305 154.433 27.4407C154.018 26.751 153.81 25.9616 153.81 25.0807C153.81 24.1999 154.018 23.427 154.425 22.729C154.832 22.031 155.405 21.4825 156.12 21.1003C156.835 20.7097 157.649 20.5186 158.538 20.5186C159.427 20.5186 160.2 20.7097 160.898 21.0753C161.596 21.4493 162.153 21.9894 162.552 22.6791C162.951 23.3772 163.15 24.1916 163.15 25.114C163.15 25.1472 163.133 25.3549 163.108 25.7372H156.261L156.278 25.8369C156.403 26.4103 156.71 26.8757 157.184 27.2081C157.649 27.5405 158.247 27.7067 158.937 27.7067C159.411 27.7067 159.843 27.6319 160.217 27.4906C160.566 27.3576 160.898 27.1499 161.197 26.8674L162.485 28.2634C161.654 29.1775 160.441 29.6429 158.871 29.6429V29.6512ZM158.555 22.3384C157.948 22.3384 157.425 22.5129 157.009 22.862C156.594 23.211 156.336 23.6846 156.245 24.283L156.228 24.3744H160.857L160.84 24.283C160.749 23.693 160.491 23.2193 160.075 22.8703C159.66 22.5213 159.145 22.3384 158.547 22.3384H158.555Z" fill="#8B9BA5"/>
<path d="M171.509 29.5177V24.8392C171.509 24.108 171.343 23.5512 171.019 23.1856C170.695 22.8199 170.213 22.6288 169.598 22.6288C168.916 22.6288 168.368 22.8448 167.961 23.2686C167.554 23.6925 167.354 24.324 167.354 25.1467V29.526H164.895V20.6676H167.238V21.8476L167.379 21.6981C167.72 21.3324 168.144 21.0416 168.642 20.8338C169.141 20.6344 169.706 20.5264 170.304 20.5264C171.393 20.5264 172.29 20.8588 172.955 21.5069C173.62 22.1551 173.96 23.144 173.96 24.432V29.5177H171.501H171.509Z" fill="#8B9BA5"/>
<path d="M179.943 29.6508C178.896 29.6508 178.074 29.3849 177.509 28.853C176.944 28.3212 176.653 27.5318 176.653 26.493V22.712H175.265V20.8589H176.653V18.665H179.112V20.8589H181.356V22.712H179.112V26.4598C179.112 26.8587 179.22 27.1744 179.428 27.3905C179.636 27.6149 179.935 27.7229 180.317 27.7229C180.7 27.7229 181.049 27.6232 181.339 27.432L181.988 29.1273C181.747 29.2935 181.456 29.4181 181.115 29.5095C180.749 29.6009 180.359 29.6508 179.952 29.6508H179.943Z" fill="#8B9BA5"/>
<path d="M183.475 29.5178V20.6594H185.935V29.5178H183.475ZM184.705 19.2384C184.248 19.2384 183.874 19.1054 183.583 18.8395C183.292 18.5736 183.159 18.2495 183.159 17.8589C183.159 17.4684 183.3 17.1443 183.583 16.8784C183.865 16.6125 184.248 16.4795 184.705 16.4795C185.162 16.4795 185.536 16.6041 185.827 16.8618C186.109 17.111 186.25 17.4351 186.25 17.8091C186.25 18.2246 186.109 18.557 185.818 18.8312C185.536 19.0971 185.153 19.2384 184.696 19.2384H184.705Z" fill="#8B9BA5"/>
<path d="M194.975 29.5177V24.8392C194.975 24.108 194.809 23.5512 194.485 23.1856C194.161 22.8199 193.679 22.6288 193.064 22.6288C192.383 22.6288 191.834 22.8448 191.427 23.2686C191.02 23.6925 190.82 24.324 190.82 25.1467V29.526H188.361V20.6676H190.704V21.8476L190.845 21.6981C191.186 21.3324 191.61 21.0416 192.108 20.8338C192.607 20.6344 193.172 20.5264 193.77 20.5264C194.859 20.5264 195.756 20.8588 196.421 21.5069C197.086 22.1551 197.427 23.144 197.427 24.432V29.5177H194.967H194.975Z" fill="#8B9BA5"/>
<path d="M202.504 29.6507C201.823 29.6507 201.233 29.5344 200.734 29.3017C200.244 29.0773 199.862 28.7532 199.604 28.3544C199.346 27.9555 199.213 27.4984 199.213 26.9915C199.213 26.1855 199.521 25.5373 200.127 25.0719C200.742 24.6066 201.715 24.3656 203.003 24.3656H205.163V24.2825C205.163 23.6925 204.98 23.2271 204.615 22.9113C204.257 22.5956 203.709 22.4294 203.003 22.4294C202.512 22.4294 202.03 22.5042 201.565 22.662C201.133 22.8033 200.751 22.9944 200.435 23.2271L199.571 21.5485C200.044 21.2244 200.609 20.9751 201.258 20.7923C201.931 20.6012 202.637 20.5098 203.36 20.5098C204.731 20.5098 205.795 20.8422 206.526 21.4903C207.257 22.1385 207.623 23.1274 207.623 24.4404V29.5094H205.338V28.1715L205.188 28.4208C204.714 29.2269 203.809 29.6424 202.504 29.6424V29.6507ZM203.293 25.745C202.172 25.745 201.607 26.1273 201.607 26.8835C201.607 27.2408 201.748 27.5317 202.03 27.7477C202.305 27.9555 202.687 28.0552 203.16 28.0552C203.634 28.0552 204.033 27.9472 204.39 27.7311C204.748 27.5151 205.013 27.1993 205.163 26.7755V25.745H203.293Z" fill="#8B9BA5"/>
<path d="M88.43 45.2984C87.599 45.2984 86.8345 45.1072 86.1615 44.7416C85.4884 44.3676 84.9566 43.8358 84.5743 43.1461C84.1921 42.4564 84.001 41.6503 84.001 40.7362C84.001 39.8221 84.1921 39.016 84.5743 38.3263C84.9566 37.6366 85.4884 37.1047 86.1615 36.7308C86.8345 36.3568 87.599 36.174 88.43 36.174C89.5518 36.174 90.4409 36.5314 91.0724 37.2377L91.2137 37.3956V32.8916H93.6733V45.1737H91.33V43.9937L91.1887 44.1599C90.5572 44.9161 89.6349 45.3067 88.43 45.3067V45.2984ZM88.8787 38.1601C88.189 38.1601 87.6073 38.3928 87.1586 38.8665C86.7099 39.3318 86.4855 39.9634 86.4855 40.7445C86.4855 41.5256 86.7099 42.1489 87.1586 42.6226C87.6073 43.0879 88.189 43.3289 88.8787 43.3289C89.5684 43.3289 90.1251 43.0962 90.5822 42.6226C91.0309 42.1572 91.2552 41.5256 91.2552 40.7445C91.2552 39.9634 91.0309 39.3318 90.5822 38.8665C90.1334 38.4011 89.5601 38.1601 88.8787 38.1601Z" fill="#8B9BA5"/>
<path d="M100.479 45.2986C99.4818 45.2986 98.5844 45.0992 97.8199 44.7086C97.0554 44.3181 96.4572 43.7779 96.0417 43.0882C95.6262 42.3985 95.4185 41.609 95.4185 40.7282C95.4185 39.8473 95.6262 39.0745 96.0334 38.3765C96.4405 37.6784 97.0139 37.13 97.7285 36.7477C98.4431 36.3571 99.2575 36.166 100.147 36.166C101.036 36.166 101.809 36.3571 102.507 36.7228C103.205 37.0967 103.761 37.6369 104.16 38.3266C104.559 39.0246 104.758 39.839 104.758 40.7614C104.758 40.7947 104.742 41.0024 104.717 41.3847H97.8698L97.8947 41.4844C98.0193 42.0578 98.3268 42.5231 98.8004 42.8555C99.2658 43.1879 99.8558 43.3541 100.554 43.3541C101.027 43.3541 101.46 43.2793 101.833 43.1381C102.182 43.0051 102.515 42.7974 102.814 42.5148L104.102 43.9109C103.271 44.825 102.058 45.2903 100.487 45.2903L100.479 45.2986ZM100.163 37.9859C99.5566 37.9859 99.0331 38.1604 98.6176 38.5094C98.2022 38.8584 97.9446 39.3321 97.8532 39.9304L97.8365 40.0218H102.465L102.448 39.9304C102.357 39.3404 102.099 38.8667 101.684 38.5177C101.268 38.1687 100.753 37.9859 100.155 37.9859H100.163Z" fill="#8B9BA5"/>
<path d="M113.849 33.5898H111.29V45.1656H113.849V33.5898Z" fill="#8B9BA5"/>
<path d="M123.056 45.1657V40.4872C123.056 39.7559 122.89 39.1991 122.566 38.8335C122.242 38.4679 121.76 38.2767 121.145 38.2767C120.464 38.2767 119.915 38.4928 119.516 38.9166C119.109 39.3404 118.91 39.972 118.91 40.7863V45.1657H116.45V36.3073H118.793V37.4873L118.935 37.3377C119.275 36.9721 119.699 36.6812 120.198 36.4735C120.696 36.274 121.261 36.166 121.86 36.166C122.948 36.166 123.846 36.4984 124.51 37.1466C125.175 37.7948 125.516 38.7837 125.516 40.0717V45.1574H123.056V45.1657Z" fill="#8B9BA5"/>
<path d="M130.136 45.165L126.421 36.3066H128.947L131.49 42.564L134.133 36.3066H136.476L132.737 45.165H130.136Z" fill="#8B9BA5"/>
<path d="M141.736 45.2986C140.739 45.2986 139.841 45.0992 139.077 44.7086C138.312 44.3181 137.714 43.7779 137.299 43.0882C136.883 42.3985 136.675 41.609 136.675 40.7282C136.675 39.8473 136.883 39.0745 137.29 38.3765C137.697 37.6784 138.271 37.13 138.985 36.7477C139.7 36.3571 140.514 36.166 141.403 36.166C142.293 36.166 143.065 36.3571 143.763 36.7228C144.461 37.0967 145.018 37.6369 145.417 38.3266C145.816 39.0246 146.015 39.839 146.015 40.7614C146.015 40.7947 145.999 41.0024 145.974 41.3847H139.127L139.152 41.4844C139.276 42.0578 139.584 42.5231 140.057 42.8555C140.523 43.1879 141.121 43.3541 141.811 43.3541C142.284 43.3541 142.716 43.2793 143.09 43.1381C143.439 43.0051 143.772 42.7974 144.071 42.5148L145.359 43.9109C144.528 44.825 143.315 45.2903 141.744 45.2903L141.736 45.2986ZM141.42 37.9859C140.813 37.9859 140.29 38.1604 139.874 38.5094C139.459 38.8584 139.201 39.3321 139.11 39.9304L139.093 40.0218H143.722L143.705 39.9304C143.614 39.3404 143.356 38.8667 142.941 38.5177C142.525 38.1687 142.01 37.9859 141.412 37.9859H141.42Z" fill="#8B9BA5"/>
<path d="M147.769 45.1657V36.3073H150.112V37.6618L150.253 37.4624C150.552 37.0386 150.968 36.7145 151.483 36.4984C151.982 36.2907 152.563 36.1743 153.211 36.166V38.418C152.962 38.4014 152.796 38.3931 152.704 38.3931C151.94 38.3931 151.325 38.6091 150.885 39.0413C150.444 39.4734 150.228 40.1299 150.228 40.9858V45.1657H147.769Z" fill="#8B9BA5"/>
<path d="M157.765 45.2986C157.026 45.2986 156.294 45.2072 155.588 45.0244C154.915 44.8499 154.367 44.6339 153.959 44.3762L154.766 42.6395C155.156 42.8805 155.63 43.0799 156.17 43.2295C156.743 43.3957 157.317 43.4788 157.865 43.4788C159.02 43.4788 159.602 43.1796 159.602 42.5813C159.602 42.2905 159.435 42.0744 159.095 41.9497C158.787 41.8334 158.314 41.742 157.682 41.6589C156.951 41.5509 156.344 41.4179 155.871 41.2766C155.405 41.1354 154.998 40.8861 154.657 40.5287C154.325 40.1797 154.151 39.6645 154.151 39.008C154.151 38.4596 154.308 37.961 154.633 37.5372C154.948 37.1133 155.422 36.7726 156.037 36.5317C156.652 36.2907 157.4 36.166 158.247 36.166C158.879 36.166 159.51 36.2325 160.133 36.3738C160.723 36.5067 161.222 36.6812 161.613 36.9056L160.807 38.6258C160.025 38.202 159.161 37.9859 158.247 37.9859C157.674 37.9859 157.242 38.069 156.951 38.2269C156.643 38.4014 156.494 38.6258 156.494 38.9C156.494 39.2158 156.66 39.4401 157.001 39.5648C157.308 39.6811 157.798 39.7892 158.455 39.8889C159.186 40.0135 159.793 40.1465 160.258 40.2794C160.715 40.4124 161.114 40.6617 161.446 41.019C161.779 41.368 161.945 41.875 161.945 42.5065C161.945 43.0467 161.779 43.5286 161.455 43.9524C161.131 44.3762 160.649 44.7086 160.025 44.9413C159.394 45.174 158.638 45.2986 157.765 45.2986Z" fill="#8B9BA5"/>
<path d="M163.557 45.1653V36.3069H166.017V45.1653H163.557ZM164.787 34.8859C164.33 34.8859 163.956 34.7529 163.665 34.487C163.374 34.2211 163.241 33.897 163.241 33.5064C163.241 33.1158 163.382 32.7917 163.665 32.5258C163.948 32.2599 164.33 32.127 164.787 32.127C165.244 32.127 165.618 32.2516 165.909 32.5092C166.191 32.7585 166.332 33.0826 166.332 33.4565C166.332 33.872 166.191 34.2044 165.9 34.4787C165.618 34.7446 165.236 34.8859 164.778 34.8859H164.787Z" fill="#8B9BA5"/>
<path d="M172.664 45.2986C171.734 45.2986 170.886 45.0992 170.147 44.7086C169.407 44.3181 168.825 43.7779 168.41 43.0882C167.994 42.3985 167.787 41.609 167.787 40.7282C167.787 39.8473 167.994 39.0579 168.41 38.3682C168.825 37.6784 169.407 37.1383 170.147 36.7477C170.886 36.3571 171.734 36.166 172.664 36.166C173.595 36.166 174.443 36.3655 175.174 36.7477C175.905 37.1383 176.487 37.6784 176.902 38.3682C177.318 39.0579 177.525 39.8473 177.525 40.7282C177.525 41.609 177.318 42.3985 176.902 43.0882C176.487 43.7779 175.905 44.3264 175.174 44.7086C174.443 45.0992 173.595 45.2986 172.664 45.2986ZM172.664 38.1604C171.975 38.1604 171.393 38.3931 170.944 38.8667C170.496 39.3321 170.271 39.9637 170.271 40.7448C170.271 41.5259 170.496 42.1492 170.944 42.6228C171.393 43.0882 171.975 43.3292 172.664 43.3292C173.354 43.3292 173.927 43.0882 174.376 42.6228C174.817 42.1575 175.041 41.5259 175.041 40.7531C175.041 39.9803 174.817 39.3487 174.376 38.8834C173.936 38.418 173.354 38.177 172.664 38.177V38.1604Z" fill="#8B9BA5"/>
<path d="M185.885 45.1652V40.4867C185.885 39.7554 185.719 39.1987 185.395 38.833C185.071 38.4674 184.589 38.2762 183.974 38.2762C183.292 38.2762 182.744 38.4923 182.337 38.9161C181.93 39.3399 181.73 39.9715 181.73 40.7942V45.1735H179.271V36.3151H181.614V37.4951L181.755 37.3455C182.096 36.9799 182.52 36.689 183.018 36.4813C183.517 36.2819 184.082 36.1738 184.68 36.1738C185.769 36.1738 186.666 36.5062 187.331 37.1544C187.996 37.8026 188.336 38.7915 188.336 40.0795V45.1652H185.877H185.885Z" fill="#8B9BA5"/>
<path d="M195.216 45.2986C194.219 45.2986 193.322 45.0992 192.557 44.7086C191.793 44.3181 191.194 43.7779 190.779 43.0882C190.364 42.3985 190.156 41.609 190.156 40.7282C190.156 39.8473 190.364 39.0745 190.771 38.3765C191.178 37.6784 191.751 37.13 192.466 36.7477C193.18 36.3571 193.995 36.166 194.884 36.166C195.773 36.166 196.546 36.3571 197.244 36.7228C197.942 37.0967 198.499 37.6369 198.897 38.3266C199.296 39.0246 199.496 39.839 199.496 40.7614C199.496 40.7947 199.479 41.0024 199.454 41.3847H192.607L192.624 41.4844C192.748 42.0578 193.056 42.5231 193.529 42.8555C193.995 43.1879 194.593 43.3541 195.283 43.3541C195.756 43.3541 196.189 43.2793 196.562 43.1381C196.911 43.0051 197.244 42.7974 197.543 42.5148L198.831 43.9109C198 44.825 196.787 45.2903 195.216 45.2903V45.2986ZM194.901 37.9859C194.294 37.9859 193.77 38.1604 193.355 38.5094C192.939 38.8584 192.682 39.3321 192.59 39.9304L192.574 40.0218H197.202L197.186 39.9304C197.094 39.3404 196.837 38.8667 196.421 38.5177C196.006 38.1687 195.49 37.9859 194.892 37.9859H194.901Z" fill="#8B9BA5"/>
<path d="M204.199 45.2986C203.459 45.2986 202.728 45.2072 202.022 45.0244C201.349 44.8499 200.8 44.6339 200.393 44.3762L201.199 42.6395C201.59 42.8805 202.063 43.0799 202.603 43.2295C203.177 43.3957 203.75 43.4788 204.299 43.4788C205.454 43.4788 206.035 43.1796 206.035 42.5813C206.035 42.2905 205.869 42.0744 205.528 41.9497C205.221 41.8334 204.747 41.742 204.116 41.6589C203.385 41.5509 202.778 41.4179 202.304 41.2766C201.839 41.1354 201.432 40.8861 201.091 40.5287C200.759 40.1797 200.584 39.6645 200.584 39.008C200.584 38.4596 200.742 37.961 201.066 37.5372C201.382 37.1133 201.856 36.7726 202.47 36.5317C203.085 36.2907 203.833 36.166 204.681 36.166C205.312 36.166 205.944 36.2325 206.567 36.3738C207.157 36.5067 207.656 36.6812 208.046 36.9056L207.24 38.6258C206.459 38.202 205.595 37.9859 204.681 37.9859C204.107 37.9859 203.675 38.069 203.385 38.2269C203.077 38.4014 202.927 38.6258 202.927 38.9C202.927 39.2158 203.094 39.4401 203.434 39.5648C203.742 39.6811 204.232 39.7892 204.889 39.8889C205.62 40.0135 206.226 40.1465 206.692 40.2794C207.149 40.4124 207.548 40.6617 207.88 41.019C208.212 41.368 208.379 41.875 208.379 42.5065C208.379 43.0467 208.212 43.5286 207.888 43.9524C207.564 44.3762 207.082 44.7086 206.459 44.9413C205.828 45.174 205.071 45.2986 204.199 45.2986Z" fill="#8B9BA5"/>
<path d="M2.41808 64.2039C1.96106 64.2039 1.49572 64.1292 1.047 63.9879C0.623217 63.8549 0.274216 63.6721 0 63.4394L0.880814 61.7193C1.07193 61.8772 1.28798 61.9935 1.52065 62.0849C1.79487 62.1846 2.06077 62.2428 2.32668 62.2428C2.70061 62.2428 3.00806 62.1514 3.24904 61.9686C3.48171 61.7857 3.68945 61.4866 3.87226 61.0711L3.92211 60.9548L0.0581669 51.9551H2.58427L5.16855 58.2042L7.76944 51.9551H10.1127L6.0826 61.4201C5.67543 62.4422 5.16855 63.1652 4.57857 63.5807C3.98859 63.9962 3.25735 64.2039 2.41808 64.2039Z" fill="#8B9BA5"/>
<path d="M20.6741 61.0122C19.4942 61.0122 18.4222 60.7546 17.4666 60.2394C16.5193 59.7325 15.7632 59.0095 15.2147 58.1038C14.6746 57.198 14.3921 56.1592 14.3921 55.0208C14.3921 53.8823 14.6663 52.8436 15.2147 51.9378C15.7632 51.032 16.511 50.3173 17.4666 49.8021C18.4139 49.2952 19.5025 49.0293 20.6907 49.0293C21.6879 49.0293 22.6102 49.2038 23.4163 49.5611C24.1974 49.9018 24.8704 50.3921 25.4106 51.0237L23.7819 52.5278C22.9842 51.6386 21.987 51.1899 20.8237 51.1899C20.0841 51.1899 19.4194 51.3561 18.8377 51.6802C18.256 52.0043 17.799 52.4613 17.4749 53.043C17.1509 53.6247 16.9847 54.2895 16.9847 55.0291C16.9847 55.7687 17.1509 56.4335 17.4749 57.0152C17.799 57.5969 18.256 58.0539 18.8377 58.378C19.4194 58.7021 20.0841 58.8683 20.8237 58.8683C21.987 58.8683 22.9842 58.4112 23.7819 57.5138L25.4106 59.0179C24.8704 59.6577 24.1974 60.1563 23.408 60.497C22.5936 60.846 21.6796 61.0289 20.6741 61.0289V61.0122Z" fill="#8B9BA5"/>
<path d="M30.6624 60.9456C29.7317 60.9456 28.8841 60.7462 28.1446 60.3556C27.405 59.9651 26.8234 59.4249 26.4079 58.7352C25.9924 58.0455 25.7847 57.256 25.7847 56.3752C25.7847 55.4943 25.9924 54.7049 26.4079 54.0151C26.8234 53.3254 27.405 52.7853 28.1446 52.3947C28.8841 52.0041 29.7317 51.8047 30.6624 51.8047C31.5931 51.8047 32.4406 52.0041 33.1719 52.3947C33.9031 52.7853 34.4848 53.3254 34.9003 54.0151C35.3157 54.7049 35.5235 55.4943 35.5235 56.3752C35.5235 57.256 35.3157 58.0455 34.9003 58.7352C34.4848 59.4249 33.9031 59.9734 33.1719 60.3556C32.4406 60.7462 31.5931 60.9456 30.6624 60.9456ZM30.6624 53.8074C29.9727 53.8074 29.3993 54.0401 28.9423 54.5137C28.4936 54.9791 28.2692 55.6106 28.2692 56.3918C28.2692 57.1729 28.4936 57.7962 28.9423 58.2698C29.391 58.7352 29.9727 58.9762 30.6624 58.9762C31.3521 58.9762 31.9254 58.7352 32.3741 58.2698C32.8146 57.8045 33.0389 57.1729 33.0389 56.4001C33.0389 55.6273 32.8146 54.9957 32.3741 54.5304C31.9337 54.065 31.3521 53.824 30.6624 53.824V53.8074Z" fill="#8B9BA5"/>
<path d="M49.5832 60.8127V56.1342C49.5832 55.4029 49.4253 54.8461 49.1178 54.4805C48.8104 54.1148 48.3617 53.9237 47.7883 53.9237C47.1568 53.9237 46.6416 54.1315 46.2677 54.547C45.902 54.9541 45.7109 55.5691 45.7109 56.3668V60.8127H43.2513V56.1342C43.2513 54.6716 42.653 53.9237 41.4647 53.9237C40.8415 53.9237 40.3346 54.1315 39.9607 54.547C39.5951 54.9541 39.404 55.5691 39.404 56.3668V60.8127H36.9443V51.9542H39.2876V53.126L39.4289 52.9681C39.753 52.6024 40.1601 52.3116 40.6338 52.1204C41.1074 51.921 41.6392 51.8213 42.2043 51.8213C42.8275 51.8213 43.3926 51.9459 43.8994 52.1869C44.398 52.4279 44.8052 52.7935 45.1043 53.2589L45.1625 53.3503L45.229 53.2672C45.5863 52.8102 46.0516 52.4528 46.6 52.2035C47.1485 51.9542 47.7634 51.8213 48.4198 51.8213C49.525 51.8213 50.4058 52.1454 51.054 52.7936C51.7021 53.4417 52.0262 54.4306 52.0262 55.727V60.8127H49.5666H49.5832Z" fill="#8B9BA5"/>
<path d="M58.458 60.9456C57.4608 60.9456 56.5634 60.7462 55.7989 60.3556C55.0344 59.9651 54.4362 59.4249 54.0207 58.7352C53.6052 58.0455 53.3975 57.256 53.3975 56.3752C53.3975 55.4943 53.6052 54.7215 54.0124 54.0234C54.4195 53.3254 54.9929 52.777 55.7075 52.3947C56.4221 52.0041 57.2365 51.8047 58.1256 51.8047C59.0147 51.8047 59.7875 51.9958 60.4855 52.3698C61.1835 52.7437 61.7403 53.2839 62.1391 53.9736C62.538 54.6716 62.7374 55.486 62.7374 56.4084C62.7374 56.4416 62.7208 56.6494 62.6959 57.0316H55.8488L55.8737 57.1314C55.9984 57.7048 56.3058 58.1701 56.7795 58.5025C57.2448 58.8349 57.8431 59.0011 58.5328 59.0011C59.0064 59.0011 59.4385 58.9263 59.8124 58.785C60.1614 58.6521 60.4938 58.4443 60.793 58.1618L62.081 59.5579C61.25 60.472 60.0368 60.9373 58.4663 60.9373L58.458 60.9456ZM58.1422 53.6329C57.5356 53.6329 57.0121 53.8074 56.5966 54.1564C56.1812 54.5054 55.9236 54.9791 55.8322 55.5774L55.8155 55.6688H60.444L60.4273 55.5774C60.3359 54.9874 60.0783 54.5137 59.6629 54.1647C59.2474 53.8157 58.7322 53.6329 58.1339 53.6329H58.1422Z" fill="#8B9BA5"/>
<path d="M64.0503 60.8132V51.9547H66.3936V53.3093L66.5349 53.1098C66.834 52.686 67.2495 52.3619 67.7647 52.1459C68.2632 51.9381 68.8449 51.8218 69.4931 51.8135V54.0655C69.2438 54.0489 69.0776 54.0405 68.9862 54.0405C68.2217 54.0405 67.6068 54.2566 67.1664 54.6887C66.726 55.1208 66.5099 55.7773 66.5099 56.6333V60.8132H64.0503Z" fill="#8B9BA5"/>
<path d="M74.8192 60.9461C73.8719 60.9461 73.016 60.7467 72.2682 60.3561C71.5203 59.9655 70.9303 59.4254 70.5065 58.7357C70.0827 58.0459 69.875 57.2565 69.875 56.3756C69.875 55.4948 70.0911 54.7053 70.5065 54.0239C70.9303 53.3342 71.5203 52.7857 72.2682 52.4035C73.016 52.0129 73.8802 51.8135 74.8192 51.8135C75.7582 51.8135 76.5725 52.0129 77.2705 52.3952C77.9436 52.7691 78.4422 53.3093 78.7579 53.9907L76.8633 55.0128C76.3814 54.2067 75.6917 53.7996 74.8026 53.7996C74.1046 53.7996 73.5146 54.0322 73.0576 54.4893C72.6005 54.9463 72.3596 55.5862 72.3596 56.3756C72.3596 57.1651 72.5922 57.7966 73.0576 58.262C73.5146 58.719 74.1046 58.9517 74.8026 58.9517C75.7 58.9517 76.3897 58.5445 76.8633 57.7385L78.7579 58.7689C78.4422 59.4337 77.9436 59.9655 77.2705 60.3395C76.5725 60.7301 75.7499 60.9295 74.8192 60.9295V60.9461Z" fill="#8B9BA5"/>
<path d="M79.8631 60.8127V51.9543H82.3228V60.8127H79.8631ZM81.0929 50.5333C80.6359 50.5333 80.262 50.4004 79.9711 50.1344C79.6803 49.8685 79.5474 49.5444 79.5474 49.1539C79.5474 48.7633 79.6886 48.4392 79.9711 48.1733C80.2537 47.9074 80.6359 47.7744 81.0929 47.7744C81.55 47.7744 81.9239 47.8991 82.2147 48.1567C82.5056 48.4143 82.6385 48.7217 82.6385 49.104C82.6385 49.5195 82.4973 49.8602 82.2147 50.1261C81.9322 50.392 81.55 50.5333 81.0929 50.5333Z" fill="#8B9BA5"/>
<path d="M88.5301 60.9456C87.5994 60.9456 86.7518 60.7462 86.0123 60.3556C85.2727 59.9651 84.691 59.4249 84.2756 58.7352C83.8601 58.0455 83.6523 57.256 83.6523 56.3752C83.6523 55.4943 83.8601 54.7049 84.2756 54.0151C84.691 53.3254 85.2727 52.7853 86.0123 52.3947C86.7518 52.0041 87.5994 51.8047 88.5301 51.8047C89.4607 51.8047 90.3083 52.0041 91.0395 52.3947C91.7708 52.7853 92.3525 53.3254 92.7679 54.0151C93.1834 54.7049 93.3912 55.4943 93.3912 56.3752C93.3912 57.256 93.1834 58.0455 92.7679 58.7352C92.3525 59.4249 91.7708 59.9734 91.0395 60.3556C90.3083 60.7462 89.4607 60.9456 88.5301 60.9456ZM88.5301 53.8074C87.8404 53.8074 87.267 54.0401 86.81 54.5137C86.3613 54.9791 86.1369 55.6106 86.1369 56.3918C86.1369 57.1729 86.3613 57.7962 86.81 58.2698C87.2587 58.7352 87.8404 58.9762 88.5301 58.9762C89.2198 58.9762 89.7931 58.7352 90.2418 58.2698C90.6822 57.8045 90.9066 57.1729 90.9066 56.4001C90.9066 55.6273 90.6822 54.9957 90.2418 54.5304C89.8014 54.065 89.2198 53.824 88.5301 53.824V53.8074Z" fill="#8B9BA5"/>
<path d="M101.693 49.2373H99.1333V60.8131H101.693V49.2373Z" fill="#8B9BA5"/>
<path d="M110.617 60.8127V56.1342C110.617 55.4029 110.451 54.8461 110.127 54.4805C109.803 54.1148 109.321 53.9237 108.706 53.9237C108.024 53.9237 107.476 54.1398 107.069 54.5636C106.662 54.9874 106.462 55.6106 106.462 56.4333V60.8127H104.002V51.9542H106.346V53.1343L106.487 52.9847C106.819 52.619 107.251 52.3282 107.75 52.1288C108.257 51.9293 108.814 51.8213 109.412 51.8213C110.501 51.8213 111.398 52.1537 112.063 52.8019C112.727 53.45 113.068 54.4389 113.068 55.727V60.8127H110.609H110.617Z" fill="#8B9BA5"/>
<path d="M118.769 60.9457C117.722 60.9457 116.899 60.6798 116.334 60.148C115.769 59.6161 115.478 58.8267 115.478 57.7879V54.0069H114.09V52.1538H115.478V49.96H117.938V52.1538H120.181V54.0069H117.938V57.7547C117.938 58.1536 118.046 58.4694 118.253 58.6854C118.461 58.9098 118.76 59.0178 119.143 59.0178C119.525 59.0178 119.874 58.9181 120.165 58.727L120.813 60.4139C120.572 60.5801 120.281 60.7047 119.94 60.7961C119.575 60.8875 119.184 60.9374 118.777 60.9374L118.769 60.9457Z" fill="#8B9BA5"/>
<path d="M126.131 60.9456C125.134 60.9456 124.236 60.7462 123.472 60.3556C122.707 59.9651 122.109 59.4249 121.694 58.7352C121.278 58.0455 121.07 57.256 121.07 56.3752C121.07 55.4943 121.278 54.7215 121.685 54.0234C122.092 53.3254 122.666 52.777 123.38 52.3947C124.095 52.0041 124.909 51.8047 125.798 51.8047C126.688 51.8047 127.46 51.9958 128.158 52.3698C128.856 52.7437 129.413 53.2839 129.812 53.9736C130.211 54.6716 130.41 55.486 130.41 56.4084C130.41 56.4416 130.394 56.6494 130.369 57.0316H123.522L123.547 57.1314C123.671 57.7048 123.979 58.1701 124.452 58.5025C124.918 58.8349 125.516 59.0011 126.206 59.0011C126.679 59.0011 127.111 58.9263 127.485 58.785C127.834 58.6521 128.167 58.4443 128.466 58.1618L129.754 59.5579C128.923 60.472 127.71 60.9373 126.139 60.9373L126.131 60.9456ZM125.815 53.6329C125.208 53.6329 124.685 53.8074 124.269 54.1564C123.854 54.5054 123.596 54.9791 123.505 55.5774L123.488 55.6688H128.117L128.1 55.5774C128.009 54.9874 127.751 54.5137 127.336 54.1647C126.92 53.8157 126.405 53.6329 125.807 53.6329H125.815Z" fill="#8B9BA5"/>
<path d="M131.873 60.8132V51.9547H134.216V53.3093L134.357 53.1098C134.656 52.686 135.072 52.3619 135.587 52.1459C136.086 51.9381 136.667 51.8218 137.315 51.8135V54.0655C137.066 54.0489 136.9 54.0405 136.808 54.0405C136.044 54.0405 135.429 54.2566 134.989 54.6887C134.548 55.1208 134.332 55.7773 134.332 56.6333V60.8132H131.873Z" fill="#8B9BA5"/>
<path d="M145.201 60.8127V56.1342C145.201 55.4029 145.035 54.8461 144.711 54.4805C144.387 54.1148 143.905 53.9237 143.29 53.9237C142.609 53.9237 142.06 54.1398 141.653 54.5636C141.246 54.9874 141.047 55.6106 141.047 56.4333V60.8127H138.587V51.9542H140.93V53.1343L141.071 52.9847C141.404 52.619 141.828 52.3282 142.335 52.1288C142.833 51.9293 143.398 51.8213 143.996 51.8213C145.085 51.8213 145.982 52.1537 146.647 52.8019C147.312 53.45 147.653 54.4389 147.653 55.727V60.8127H145.193H145.201Z" fill="#8B9BA5"/>
<path d="M152.447 60.9461C151.766 60.9461 151.176 60.8298 150.677 60.5971C150.187 60.3727 149.805 60.0486 149.547 59.6581C149.29 59.2592 149.157 58.8021 149.157 58.2952C149.157 57.4892 149.464 56.841 150.071 56.3756C150.686 55.9103 151.65 55.6693 152.946 55.6693H155.106V55.5862C155.106 54.9962 154.924 54.5308 154.558 54.2151C154.201 53.8993 153.652 53.7331 152.946 53.7331C152.456 53.7331 151.974 53.8079 151.508 53.9658C151.076 54.107 150.694 54.2982 150.378 54.5308L149.514 52.8522C149.988 52.5281 150.553 52.2788 151.201 52.096C151.874 51.9049 152.58 51.8135 153.303 51.8135C154.674 51.8135 155.738 52.1459 156.469 52.7941C157.2 53.4422 157.566 54.4311 157.566 55.7441V60.8132H155.281V59.4753L155.131 59.7246C154.658 60.5306 153.752 60.9461 152.447 60.9461ZM153.237 57.0404C152.115 57.0404 151.55 57.4227 151.55 58.1789C151.55 58.5362 151.691 58.8271 151.974 59.0431C152.248 59.2509 152.63 59.3506 153.104 59.3506C153.577 59.3506 153.976 59.2426 154.334 59.0265C154.691 58.8105 154.957 58.4864 155.106 58.0709V57.0404H153.237Z" fill="#8B9BA5"/>
<path d="M164.031 60.9461C163.083 60.9461 162.227 60.7467 161.48 60.3561C160.732 59.9655 160.133 59.4254 159.718 58.7357C159.294 58.0459 159.086 57.2565 159.086 56.3756C159.086 55.4948 159.302 54.7053 159.718 54.0239C160.142 53.3342 160.732 52.7941 161.48 52.4035C162.227 52.0129 163.092 51.8135 164.031 51.8135C164.97 51.8135 165.784 52.0129 166.482 52.3952C167.155 52.7691 167.654 53.3093 167.969 53.9907L166.075 55.0128C165.593 54.2067 164.903 53.7996 164.014 53.7996C163.316 53.7996 162.726 54.0322 162.261 54.4893C161.804 54.9463 161.571 55.5862 161.571 56.3756C161.571 57.1651 161.804 57.7966 162.261 58.262C162.718 58.7274 163.308 58.9517 164.014 58.9517C164.911 58.9517 165.601 58.5445 166.075 57.7385L167.969 58.7689C167.654 59.4337 167.155 59.9655 166.482 60.3395C165.784 60.7301 164.961 60.9295 164.031 60.9295V60.9461Z" fill="#8B9BA5"/>
<path d="M169.224 60.8127V51.9543H171.684V60.8127H169.224ZM170.454 50.5333C169.997 50.5333 169.623 50.4004 169.332 50.1344C169.05 49.8685 168.909 49.5444 168.909 49.1539C168.909 48.7633 169.05 48.4392 169.332 48.1733C169.615 47.9074 169.997 47.7744 170.454 47.7744C170.911 47.7744 171.285 47.8991 171.576 48.1567C171.859 48.4143 172 48.7217 172 49.104C172 49.5195 171.859 49.8602 171.568 50.1261C171.285 50.392 170.903 50.5333 170.446 50.5333H170.454Z" fill="#8B9BA5"/>
<path d="M178.049 60.9456C177.118 60.9456 176.271 60.7462 175.531 60.3556C174.792 59.9651 174.21 59.4249 173.795 58.7352C173.379 58.0455 173.171 57.256 173.171 56.3752C173.171 55.4943 173.379 54.7049 173.795 54.0151C174.21 53.3254 174.792 52.7853 175.531 52.3947C176.271 52.0041 177.118 51.8047 178.049 51.8047C178.98 51.8047 179.827 52.0041 180.559 52.3947C181.29 52.7853 181.871 53.3254 182.287 54.0151C182.702 54.7049 182.91 55.4943 182.91 56.3752C182.91 57.256 182.702 58.0455 182.287 58.7352C181.871 59.4249 181.29 59.9734 180.559 60.3556C179.827 60.7462 178.98 60.9456 178.049 60.9456ZM178.049 53.8074C177.359 53.8074 176.778 54.0401 176.329 54.5137C175.88 54.9791 175.656 55.6106 175.656 56.3918C175.656 57.1729 175.88 57.8045 176.329 58.2698C176.778 58.7352 177.359 58.9762 178.049 58.9762C178.739 58.9762 179.312 58.7352 179.761 58.2698C180.201 57.8045 180.426 57.1729 180.426 56.4001C180.426 55.6273 180.201 54.9957 179.761 54.5304C179.32 54.065 178.739 53.824 178.049 53.824V53.8074Z" fill="#8B9BA5"/>
<path d="M190.987 60.8127V56.1342C190.987 55.4029 190.821 54.8461 190.497 54.4805C190.173 54.1148 189.691 53.9237 189.076 53.9237C188.394 53.9237 187.846 54.1398 187.439 54.5636C187.032 54.9874 186.832 55.6106 186.832 56.4333V60.8127H184.373V51.9542H186.716V53.1343L186.857 52.9847C187.189 52.619 187.613 52.3282 188.12 52.1288C188.619 51.9293 189.184 51.8213 189.782 51.8213C190.871 51.8213 191.768 52.1537 192.433 52.8019C193.098 53.45 193.438 54.4389 193.438 55.727V60.8127H190.979H190.987Z" fill="#8B9BA5"/>
<path d="M198.233 60.9461C197.552 60.9461 196.962 60.8298 196.463 60.5971C195.973 60.3727 195.591 60.0486 195.333 59.6581C195.075 59.2592 194.942 58.8021 194.942 58.2952C194.942 57.4892 195.25 56.841 195.856 56.3756C196.471 55.9103 197.435 55.6693 198.732 55.6693H200.892V55.5862C200.892 54.9962 200.709 54.5308 200.344 54.2151C199.986 53.8993 199.438 53.7331 198.732 53.7331C198.241 53.7331 197.759 53.8079 197.294 53.9658C196.862 54.107 196.48 54.2982 196.164 54.5308L195.3 52.8522C195.773 52.5281 196.338 52.2788 196.987 52.096C197.66 51.9049 198.366 51.8135 199.089 51.8135C200.46 51.8135 201.524 52.1459 202.255 52.7941C202.986 53.4422 203.352 54.4311 203.352 55.7441V60.8132H201.067V59.4753L200.917 59.7246C200.443 60.5306 199.538 60.9461 198.233 60.9461ZM199.022 57.0404C197.901 57.0404 197.336 57.4227 197.336 58.1789C197.336 58.5362 197.477 58.8271 197.759 59.0431C198.034 59.2509 198.416 59.3506 198.889 59.3506C199.363 59.3506 199.762 59.2426 200.119 59.0265C200.477 58.8105 200.742 58.4864 200.892 58.0709V57.0404H199.022Z" fill="#8B9BA5"/>
<path d="M207.897 48.5312H205.438V60.8134H207.897V48.5312Z" fill="#8B9BA5"/>
</g>
<defs>
<clipPath id="clip0_521_2240">
<rect width="402" height="77" fill="white"/>
</clipPath>
</defs>
</svg>
